<?xml version="1.0" encoding="utf-8"?>
<!-- Generator: Adobe Illustrator 24.1.0, SVG Export Plug-In . SVG Version: 6.00 Build 0)  -->
<svg version="1.1" id="Capa_1" xmlns="http://www.w3.org/2000/svg" xmlns:xlink="http://www.w3.org/1999/xlink" x="0px" y="0px"
	 viewBox="0 0 50 50" style="enable-background:new 0 0 50 50;" xml:space="preserve">
<style type="text/css">
	.st0{fill:#FF3414;}
</style>
<g>
	<g>
		<path class="st0" d="M43.2,23.1c1.5-1,2.4-2.7,2.4-4.7c0-3.2-2.6-5.7-5.7-5.7c-3.2,0-5.7,2.6-5.7,5.7c0,1.9,1,3.6,2.4,4.7
			c-1.3,0.4-2.4,1.1-3.4,2c-1.3-1.1-2.9-2-4.6-2.5c2.1-1.3,3.5-3.6,3.5-6.2c0-4-3.2-7.2-7.2-7.2s-7.2,3.2-7.2,7.2
			c0,2.6,1.4,4.9,3.5,6.2c-1.7,0.5-3.3,1.4-4.6,2.5c-1-0.9-2.1-1.5-3.3-1.9c1.5-1,2.4-2.7,2.4-4.7c0-3.2-2.6-5.7-5.7-5.7
			s-5.7,2.6-5.7,5.7c0,1.9,1,3.6,2.4,4.7C2.8,24.5,0,28.2,0,32.6v0.7c0,0,0,0,0,0h12.1c-0.1,0.5-0.1,1.1-0.1,1.7v0.7
			c0,2.9,2.4,5.3,5.3,5.3h15.3c2.9,0,5.3-2.4,5.3-5.3v-0.7c0-0.6,0-1.1-0.1-1.7H50c0,0,0,0,0,0v-0.7C50,28.2,47.2,24.5,43.2,23.1z
			 M35.8,18.4c0-2.3,1.9-4.1,4.1-4.1s4.1,1.9,4.1,4.1c0,2.2-1.8,4.1-4,4.1c0,0,0,0-0.1,0s0,0-0.1,0C37.6,22.5,35.8,20.7,35.8,18.4z
			 M19.3,16.4c0-3.1,2.5-5.6,5.6-5.6s5.6,2.5,5.6,5.6c0,3-2.4,5.5-5.3,5.6c-0.1,0-0.2,0-0.3,0s-0.2,0-0.3,0
			C21.6,21.8,19.3,19.4,19.3,16.4z M5.9,18.4c0-2.3,1.9-4.1,4.1-4.1s4.1,1.9,4.1,4.1c0,2.2-1.8,4.1-4,4.1c0,0,0,0-0.1,0
			c0,0,0,0-0.1,0C7.7,22.5,5.9,20.7,5.9,18.4z M12.4,31.7H1.6c0.4-4.2,4-7.5,8.3-7.5c0,0,0,0,0.1,0s0,0,0.1,0c2.1,0,3.9,0.8,5.4,2
			C14,27.7,13,29.6,12.4,31.7z M36.3,35.6c0,2-1.7,3.7-3.7,3.7H17.3c-2,0-3.7-1.7-3.7-3.7v-0.7c0-6.1,4.9-11.2,11-11.3
			c0.1,0,0.2,0,0.3,0s0.2,0,0.3,0c6.1,0.2,11,5.2,11,11.3V35.6z M37.5,31.7c-0.5-2.1-1.6-4-3-5.5c1.5-1.3,3.4-2,5.4-2c0,0,0,0,0.1,0
			s0,0,0.1,0c4.3,0,7.9,3.3,8.3,7.5H37.5z"/>
	</g>
</g>
</svg>
